<?xml version="1.0" standalone="no"?>
<!DOCTYPE svg PUBLIC "-//W3C//DTD SVG 20010904//EN"
 "http://www.w3.org/TR/2001/REC-SVG-20010904/DTD/svg10.dtd">
<svg version="1.0" xmlns="http://www.w3.org/2000/svg"
 width="3378.000000pt" height="1979.000000pt" viewBox="0 0 3378.000000 1979.000000"
 preserveAspectRatio="xMidYMid meet">

<g transform="translate(0.000000,1979.000000) scale(0.100000,-0.100000)"
fill="#000000" stroke="none">
<path d="M387 19525 c-10 -34 -55 -282 -76 -420 -26 -171 -57 -450 -73 -655
-15 -213 -15 -797 0 -1010 79 -1044 332 -1982 777 -2870 716 -1430 1838 -2543
3288 -3261 l127 -64 0 -5027 0 -5028 945 0 945 0 2 546 3 547 50 -64 c140
-180 404 -457 610 -643 378 -341 771 -607 1245 -845 541 -270 1100 -445 1697
-531 505 -72 1081 -72 1586 0 825 118 1623 425 2317 889 831 557 1515 1351
1940 2249 24 50 46 92 50 92 4 0 54 -80 113 -178 358 -601 642 -1179 908
-1854 41 -103 79 -188 84 -188 6 0 43 85 84 188 266 675 550 1253 908 1855 59
97 109 177 113 177 4 0 26 -42 50 -92 425 -898 1109 -1692 1940 -2249 401
-268 893 -511 1340 -659 300 -100 661 -185 977 -230 505 -72 1081 -72 1586 0
825 118 1625 425 2316 889 460 308 928 737 1236 1130 l50 64 3 -547 2 -546
945 0 945 0 0 5028 0 5027 128 64 c1449 718 2571 1831 3287 3261 445 888 698
1826 777 2870 15 213 15 797 0 1010 -16 205 -47 484 -73 655 -27 176 -70 407
-79 424 -6 11 -14 2 -30 -30 -37 -72 -185 -332 -288 -504 -1064 -1782 -2508
-3329 -4292 -4600 -1417 -1009 -2946 -1788 -4450 -2267 -602 -192 -1323 -368
-1735 -424 -884 -120 -1592 -332 -2334 -699 -1476 -730 -2625 -1862 -3317
-3268 -45 -92 -85 -168 -89 -168 -4 0 -44 76 -89 168 -692 1406 -1841 2538
-3317 3268 -742 367 -1450 579 -2334 699 -502 68 -1397 300 -2070 535 -1137
398 -2189 910 -3270 1591 -1647 1036 -3031 2275 -4143 3708 -430 554 -850
1188 -1191 1797 -55 99 -104 187 -109 195 -8 12 -10 12 -15 -5z m8044 -10706
c1839 -457 3508 -1313 4944 -2533 181 -154 321 -281 524 -475 l174 -166 -6
-145 c-11 -246 -49 -499 -112 -748 -349 -1361 -1421 -2423 -2785 -2756 -325
-79 -520 -101 -905 -101 -385 0 -580 22 -905 101 -1377 337 -2457 1417 -2794
2794 -79 325 -101 520 -101 905 0 315 6 401 46 640 153 920 663 1775 1404
2356 88 69 256 189 265 189 3 0 116 -27 251 -61z m17340 -6 c766 -545 1301
-1329 1514 -2218 79 -327 100 -518 100 -900 0 -385 -22 -580 -101 -905 -337
-1377 -1417 -2457 -2794 -2794 -325 -79 -520 -101 -905 -101 -385 0 -580 22
-905 101 -1364 333 -2436 1395 -2785 2756 -63 249 -101 502 -112 748 l-6 145
174 166 c96 92 224 211 284 265 1341 1205 2952 2102 4686 2610 178 52 719 193
745 194 6 0 53 -30 105 -67z"/>
</g>
</svg>
