<?xml version="1.0" standalone="no"?>
<!DOCTYPE svg PUBLIC "-//W3C//DTD SVG 20010904//EN"
 "http://www.w3.org/TR/2001/REC-SVG-20010904/DTD/svg10.dtd">
<svg version="1.0" xmlns="http://www.w3.org/2000/svg"
 width="3369.000000pt" height="1979.000000pt" viewBox="0 0 3369.000000 1979.000000"
 preserveAspectRatio="xMidYMid meet">

<g transform="translate(0.000000,1979.000000) scale(0.100000,-0.100000)"
fill="#000000" stroke="none">
<path d="M286 19540 c-25 -68 -104 -585 -131 -850 -38 -377 -45 -969 -15
-1320 111 -1333 518 -2519 1233 -3595 441 -663 1013 -1267 1658 -1752 351
-264 747 -508 1131 -696 l167 -82 1 -5027 0 -5028 945 0 945 0 0 546 0 545 72
-88 c870 -1071 2139 -1791 3508 -1993 298 -44 451 -54 820 -54 369 0 522 10
820 54 1504 222 2861 1056 3743 2303 177 250 343 529 462 779 39 81 72 147 75
147 3 1 58 -88 122 -197 342 -578 628 -1160 870 -1771 57 -143 108 -260 113
-260 6 0 56 117 113 260 242 611 528 1193 870 1771 64 109 119 198 122 197 3
0 37 -66 75 -147 119 -250 285 -529 462 -779 882 -1247 2239 -2081 3743 -2303
298 -44 451 -54 820 -54 369 0 522 10 820 54 1369 202 2638 922 3508 1993 l72
88 0 -545 0 -546 945 0 945 0 0 5028 1 5027 167 82 c720 353 1368 824 1947
1414 553 563 996 1192 1340 1903 414 853 653 1741 735 2726 30 351 23 943 -15
1320 -27 265 -106 782 -131 850 -5 16 -5 17 -129 -205 -1371 -2450 -3467
-4491 -6146 -5986 -1331 -742 -2694 -1264 -4084 -1562 -222 -48 -299 -61 -595
-102 -1096 -152 -2192 -585 -3140 -1238 -1014 -700 -1808 -1608 -2342 -2677
l-103 -205 -111 220 c-539 1071 -1323 1964 -2334 2662 -948 653 -2044 1086
-3140 1238 -296 41 -373 54 -595 102 -1826 392 -3586 1160 -5328 2325 -925
619 -1709 1260 -2467 2018 -970 970 -1782 2039 -2435 3205 -124 222 -124 221
-129 205z m8281 -10785 c1746 -467 3359 -1318 4741 -2501 155 -133 337 -299
521 -476 l145 -138 -12 -177 c-37 -540 -159 -996 -394 -1463 -324 -646 -783
-1151 -1397 -1538 -155 -97 -474 -256 -642 -320 -887 -336 -1841 -336 -2728 0
-168 64 -487 223 -642 320 -507 319 -908 720 -1227 1227 -97 155 -256 474
-320 642 -336 887 -336 1841 0 2728 100 263 285 606 462 855 241 338 594 684
938 918 l67 46 140 -34 c78 -18 234 -59 348 -89z m17137 31 c316 -226 650
-560 872 -872 241 -340 436 -735 554 -1125 240 -798 208 -1665 -92 -2458 -64
-168 -223 -487 -320 -642 -319 -507 -720 -908 -1227 -1227 -155 -97 -474 -256
-642 -320 -887 -336 -1841 -336 -2728 0 -168 64 -487 223 -642 320 -507 319
-908 720 -1227 1227 -97 155 -256 474 -320 642 -140 371 -216 724 -244 1132
l-12 177 145 138 c679 651 1364 1178 2138 1646 843 510 1755 919 2689 1205
444 137 907 254 937 238 11 -5 64 -42 119 -81z"/>
</g>
</svg>
